<svg width="1204" height="415" viewBox="0 0 1204 415" fill="none" xmlns="http://www.w3.org/2000/svg">
<path d="M88.1543 158H60.0146V89.7676H35.2783V158H7.30469V68.1855H88.1543V158ZM146.592 159.66C132.812 159.66 121.662 155.565 113.14 147.375C104.618 139.13 100.356 128.422 100.356 115.251V112.927C100.356 103.741 102.044 95.6335 105.42 88.6055C108.851 81.5775 113.831 76.1543 120.361 72.3359C126.891 68.4622 134.639 66.5254 143.604 66.5254C156.221 66.5254 166.182 70.4544 173.486 78.3125C180.791 86.1152 184.443 97.0169 184.443 111.018V121.892H128.828C129.824 126.927 132.01 130.884 135.386 133.762C138.761 136.639 143.133 138.078 148.501 138.078C157.355 138.078 164.272 134.979 169.253 128.781L182.036 143.889C178.55 148.703 173.597 152.549 167.178 155.427C160.814 158.249 153.952 159.66 146.592 159.66ZM143.438 88.1074C135.247 88.1074 130.378 93.5306 128.828 104.377H157.051V102.219C157.161 97.7363 156.027 94.2777 153.647 91.8428C151.268 89.3525 147.865 88.1074 143.438 88.1074ZM279.155 113.757C279.155 127.702 276.001 138.853 269.692 147.209C263.439 155.51 254.972 159.66 244.292 159.66C236.047 159.66 229.268 156.644 223.955 150.612V192.531H195.981V68.1855H222.129L222.959 76.4863C228.327 69.8457 235.382 66.5254 244.126 66.5254C255.194 66.5254 263.799 70.6204 269.941 78.8105C276.084 86.9453 279.155 98.1514 279.155 112.429V113.757ZM251.182 112.014C251.182 96.0762 246.533 88.1074 237.236 88.1074C230.596 88.1074 226.169 90.487 223.955 95.2461V130.607C226.39 135.588 230.872 138.078 237.402 138.078C246.312 138.078 250.905 130.386 251.182 115.002V112.014ZM318.999 68.1855V136.418H340.083V68.1855H368.14V136.418H389.141V68.1855H417.197V158H291.025V68.1855H318.999ZM485.928 68.1855H513.984V158H485.928V105.705L461.274 158H433.135V68.1855H461.274V120.314L485.928 68.1855ZM581.221 68.1855H609.277V158H581.221V105.705L556.567 158H528.428V68.1855H556.567V120.314L581.221 68.1855ZM600.229 30.334C600.229 37.9154 597.435 44.0579 591.846 48.7617C586.257 53.4655 578.813 55.8174 569.517 55.8174C560.22 55.8174 552.777 53.4655 547.188 48.7617C541.598 44.0579 538.804 37.9154 538.804 30.334H557.812C557.812 33.6543 558.836 36.2552 560.884 38.1367C562.987 39.9629 565.864 40.876 569.517 40.876C573.169 40.876 575.991 39.9906 577.983 38.2197C580.031 36.3936 581.055 33.765 581.055 30.334H600.229ZM668.96 136.418C673.442 131.936 676.68 127.481 678.672 123.054C680.719 118.627 681.909 113.48 682.241 107.614L682.49 101.472L682.988 68.1855H752.964V136.418H766.411V185.227H738.354V158H689.712V185.227H660.991L660.908 136.418H668.96ZM701.167 136.418H725.073V89.7676H710.713L710.63 97.1553C710.243 113.314 707.088 126.402 701.167 136.418ZM819.453 159.66C805.674 159.66 794.523 155.565 786.001 147.375C777.479 139.13 773.218 128.422 773.218 115.251V112.927C773.218 103.741 774.906 95.6335 778.281 88.6055C781.712 81.5775 786.693 76.1543 793.223 72.3359C799.753 68.4622 807.5 66.5254 816.465 66.5254C829.082 66.5254 839.043 70.4544 846.348 78.3125C853.652 86.1152 857.305 97.0169 857.305 111.018V121.892H801.689C802.686 126.927 804.871 130.884 808.247 133.762C811.623 136.639 815.994 138.078 821.362 138.078C830.216 138.078 837.134 134.979 842.114 128.781L854.897 143.889C851.411 148.703 846.458 152.549 840.039 155.427C833.675 158.249 826.813 159.66 819.453 159.66ZM816.299 88.1074C808.109 88.1074 803.239 93.5306 801.689 104.377H829.912V102.219C830.023 97.7363 828.888 94.2777 826.509 91.8428C824.129 89.3525 820.726 88.1074 816.299 88.1074ZM948.613 158H920.557V124.714H896.069V158H868.096V68.1855H896.069V103.215H920.557V68.1855H948.613V158ZM993.936 92.8389H1008.3C1016.6 92.8389 1023.9 94.1947 1030.21 96.9062C1036.52 99.6178 1041.33 103.464 1044.65 108.444C1047.97 113.425 1049.63 119.208 1049.63 125.793C1049.63 135.477 1045.87 143.28 1038.34 149.201C1030.87 155.067 1020.66 158 1007.71 158H965.796V68.1855H993.936V92.8389ZM993.936 114.338V136.584H1008.13C1012.39 136.584 1015.71 135.616 1018.09 133.679C1020.53 131.687 1021.74 129.003 1021.74 125.627C1021.74 122.307 1020.66 119.595 1018.51 117.492C1016.35 115.389 1012.89 114.338 1008.13 114.338H993.936ZM1104.25 158V68.1855H1142.77C1155.11 68.1855 1164.54 70.3438 1171.07 74.6602C1177.66 78.9766 1180.95 85.2021 1180.95 93.3369C1180.95 97.4873 1179.51 101.223 1176.64 104.543C1173.76 107.808 1169.55 110.326 1164.02 112.097C1171.16 113.314 1176.66 115.694 1180.54 119.235C1184.41 122.722 1186.35 127.093 1186.35 132.351C1186.35 140.817 1183.14 147.209 1176.72 151.525C1170.35 155.786 1161.17 157.945 1149.16 158H1104.25ZM1132.31 121.394V136.584H1148.66C1152.15 136.584 1154.64 135.975 1156.13 134.758C1157.63 133.54 1158.37 131.687 1158.37 129.196C1158.37 124.216 1155.5 121.615 1149.74 121.394H1132.31ZM1132.31 104.128H1143.85C1147.22 104.128 1149.58 103.575 1150.9 102.468C1152.29 101.306 1152.98 99.6178 1152.98 97.4043C1152.98 94.5267 1152.15 92.5068 1150.49 91.3447C1148.83 90.1826 1146.25 89.6016 1142.77 89.6016H1132.31V104.128Z" fill="#06BE44"/>
<path d="M54.9316 352.581V355.581H57.9316V352.581H54.9316ZM13.6719 352.581H10.6719V355.581H13.6719V352.581ZM13.6719 220.501V217.501H10.6719V220.501H13.6719ZM54.9316 220.501H57.9316V217.501H54.9316V220.501ZM54.9316 349.581H13.6719V355.581H54.9316V349.581ZM16.6719 352.581V220.501H10.6719V352.581H16.6719ZM13.6719 223.501H54.9316V217.501H13.6719V223.501ZM51.9316 220.501V352.581H57.9316V220.501H51.9316ZM14.2305 186.443C14.2305 181.407 16.0045 177.437 19.5658 174.286L15.5904 169.792C10.6882 174.129 8.23047 179.761 8.23047 186.443H14.2305ZM19.5658 174.286C23.1459 171.119 27.8847 169.424 34.0576 169.424V163.424C26.7214 163.424 20.4739 165.472 15.5904 169.792L19.5658 174.286ZM34.0576 169.424C40.2305 169.424 44.9693 171.119 48.5494 174.286L52.5248 169.792C47.6414 165.472 41.3938 163.424 34.0576 163.424V169.424ZM48.5494 174.286C52.1108 177.437 53.8848 181.407 53.8848 186.443H59.8848C59.8848 179.761 57.427 174.129 52.5248 169.792L48.5494 174.286ZM53.8848 186.443C53.8848 191.48 52.1108 195.45 48.5494 198.601L52.5248 203.095C57.427 198.758 59.8848 193.126 59.8848 186.443H53.8848ZM48.5494 198.601C44.9693 201.768 40.2305 203.463 34.0576 203.463V209.463C41.3938 209.463 47.6414 207.415 52.5248 203.095L48.5494 198.601ZM34.0576 203.463C27.8847 203.463 23.1459 201.768 19.5658 198.601L15.5904 203.095C20.4739 207.415 26.7214 209.463 34.0576 209.463V203.463ZM19.5658 198.601C16.0045 195.45 14.2305 191.48 14.2305 186.443H8.23047C8.23047 193.126 10.6882 198.758 15.5904 203.095L19.5658 198.601ZM118.164 220.501L121.153 220.242L120.915 217.501H118.164V220.501ZM119.507 236.004L116.518 236.263L117.188 243.998L121.893 237.822L119.507 236.004ZM187.988 230.389L185.671 232.293L185.676 232.3L185.682 232.307L187.988 230.389ZM198.608 267.498H201.608V267.476L201.608 267.454L198.608 267.498ZM198.608 352.581V355.581H201.608V352.581H198.608ZM157.349 352.581H154.349V355.581H157.349V352.581ZM153.32 254.559L151.03 256.496L151.043 256.511L151.055 256.526L153.32 254.559ZM120.728 259.319L118.173 257.747L117.728 258.47V259.319H120.728ZM120.728 352.581V355.581H123.728V352.581H120.728ZM79.5898 352.581H76.5898V355.581H79.5898V352.581ZM79.5898 220.501V217.501H76.5898V220.501H79.5898ZM115.175 220.76L116.518 236.263L122.496 235.745L121.153 220.242L115.175 220.76ZM121.893 237.822C130.398 226.659 142.059 221.06 157.227 221.06V215.06C140.33 215.06 126.845 221.423 117.121 234.186L121.893 237.822ZM157.227 221.06C170.366 221.06 179.644 224.96 185.671 232.293L190.306 228.484C182.823 219.378 171.594 215.06 157.227 215.06V221.06ZM185.682 232.307C191.896 239.779 195.369 251.353 195.609 267.542L201.608 267.454C201.359 250.602 197.752 237.437 190.295 228.47L185.682 232.307ZM195.608 267.498V352.581H201.608V267.498H195.608ZM198.608 349.581H157.349V355.581H198.608V349.581ZM160.349 352.581V269.207H154.349V352.581H160.349ZM160.349 269.207C160.349 262.237 158.964 256.483 155.585 252.592L151.055 256.526C153.047 258.82 154.349 262.831 154.349 269.207H160.349ZM155.61 252.621C152.058 248.422 146.038 246.798 138.672 246.798V252.798C145.466 252.798 149.211 254.347 151.03 256.496L155.61 252.621ZM138.672 246.798C129.675 246.798 122.676 250.429 118.173 257.747L123.283 260.892C126.592 255.514 131.555 252.798 138.672 252.798V246.798ZM117.728 259.319V352.581H123.728V259.319H117.728ZM120.728 349.581H79.5898V355.581H120.728V349.581ZM82.5898 352.581V220.501H76.5898V352.581H82.5898ZM79.5898 223.501H118.164V217.501H79.5898V223.501ZM269.409 187.664H272.409V184.664H269.409V187.664ZM269.409 220.501H266.409V223.501H269.409V220.501ZM291.138 220.501H294.138V217.501H291.138V220.501ZM291.138 249.065V252.065H294.138V249.065H291.138ZM269.409 249.065V246.065H266.409V249.065H269.409ZM272.095 319.866L274.306 317.839L272.095 319.866ZM292.969 322.063H295.969V318.488L292.447 319.109L292.969 322.063ZM292.969 351.482L293.88 354.341L295.969 353.675V351.482H292.969ZM228.271 249.065H231.271V246.065H228.271V249.065ZM211.426 249.065H208.426V252.065H211.426V249.065ZM211.426 220.501V217.501H208.426V220.501H211.426ZM228.271 220.501V223.501H231.271V220.501H228.271ZM228.271 187.664V184.664H225.271V187.664H228.271ZM266.409 187.664V220.501H272.409V187.664H266.409ZM269.409 223.501H291.138V217.501H269.409V223.501ZM288.138 220.501V249.065H294.138V220.501H288.138ZM291.138 246.065H269.409V252.065H291.138V246.065ZM266.409 249.065V309.49H272.409V249.065H266.409ZM266.409 309.49C266.409 314.625 267.297 319.072 269.883 321.893L274.306 317.839C273.312 316.754 272.409 314.284 272.409 309.49H266.409ZM269.883 321.893C272.599 324.856 277.321 325.796 282.715 325.796V319.796C277.529 319.796 275.172 318.783 274.306 317.839L269.883 321.893ZM282.715 325.796C286.888 325.796 290.493 325.547 293.49 325.018L292.447 319.109C289.91 319.557 286.679 319.796 282.715 319.796V325.796ZM289.969 322.063V351.482H295.969V322.063H289.969ZM292.058 348.624C284.957 350.887 277.534 352.022 269.775 352.022V358.022C278.13 358.022 286.169 356.798 293.88 354.341L292.058 348.624ZM269.775 352.022C256.021 352.022 246.481 348.776 240.512 342.879L236.295 347.147C243.835 354.596 255.209 358.022 269.775 358.022V352.022ZM240.512 342.879C234.535 336.974 231.271 327.755 231.271 314.617H225.271C225.271 328.661 228.762 339.705 236.295 347.147L240.512 342.879ZM231.271 314.617V249.065H225.271V314.617H231.271ZM228.271 246.065H211.426V252.065H228.271V246.065ZM214.426 249.065V220.501H208.426V249.065H214.426ZM211.426 223.501H228.271V217.501H211.426V223.501ZM231.271 220.501V187.664H225.271V220.501H231.271ZM228.271 190.664H269.409V184.664H228.271V190.664ZM322.144 336.956L320.058 339.112L320.065 339.119L322.144 336.956ZM310.791 250.53L308.095 249.214L308.091 249.223L308.087 249.231L310.791 250.53ZM332.764 226.604L334.278 229.194L334.286 229.189L334.294 229.185L332.764 226.604ZM410.889 235.394L408.691 237.436L408.699 237.444L410.889 235.394ZM427.002 299.48V302.48H430.002V299.48H427.002ZM345.215 299.48V296.48H341.563L342.272 300.063L345.215 299.48ZM404.663 309.612L406.953 307.674L404.603 304.897L402.325 307.733L404.663 309.612ZM423.462 331.829L425.892 333.589L427.27 331.685L425.752 329.891L423.462 331.829ZM401.611 348.797L402.828 351.539L402.838 351.534L401.611 348.797ZM345.215 273.724L342.245 273.299L341.756 276.724H345.215V273.724ZM386.719 273.724V276.724H389.719V273.724H386.719ZM386.719 270.55L383.72 270.476L383.719 270.513V270.55H386.719ZM381.714 255.291L379.545 257.364L379.557 257.376L379.568 257.388L381.714 255.291ZM371.338 352.022C351.711 352.022 336.104 346.212 324.222 334.793L320.065 339.119C333.248 351.789 350.437 358.022 371.338 358.022V352.022ZM324.23 334.8C312.349 323.305 306.345 308.37 306.345 289.715H300.345C300.345 309.797 306.873 326.356 320.058 339.112L324.23 334.8ZM306.345 289.715V286.297H300.345V289.715H306.345ZM306.345 286.297C306.345 273.158 308.757 261.693 313.495 251.829L308.087 249.231C302.896 260.038 300.345 272.418 300.345 286.297H306.345ZM313.487 251.846C318.282 242.024 325.204 234.5 334.278 229.194L331.249 224.015C321.118 229.939 313.391 238.366 308.095 249.214L313.487 251.846ZM334.294 229.185C343.356 223.809 354.2 221.06 366.943 221.06V215.06C353.319 215.06 341.377 218.007 331.233 224.024L334.294 229.185ZM366.943 221.06C384.824 221.06 398.617 226.599 408.691 237.436L413.086 233.351C401.676 221.076 386.172 215.06 366.943 215.06V221.06ZM408.699 237.444C418.775 248.208 424.002 263.419 424.002 283.489H430.002C430.002 262.381 424.486 245.529 413.079 233.343L408.699 237.444ZM424.002 283.489V299.48H430.002V283.489H424.002ZM427.002 296.48H345.215V302.48H427.002V296.48ZM342.272 300.063C343.846 308.022 347.355 314.482 352.912 319.22L356.805 314.653C352.434 310.927 349.513 305.75 348.158 298.898L342.272 300.063ZM352.912 319.22C358.527 324.006 365.695 326.284 374.146 326.284V320.284C366.809 320.284 361.118 318.33 356.805 314.653L352.912 319.22ZM374.146 326.284C387.958 326.284 399.038 321.401 407.002 311.491L402.325 307.733C395.639 316.052 386.375 320.284 374.146 320.284V326.284ZM402.373 311.55L421.172 333.767L425.752 329.891L406.953 307.674L402.373 311.55ZM421.032 330.07C416.266 336.652 409.433 342.003 400.384 346.059L402.838 351.534C412.67 347.127 420.404 341.167 425.892 333.589L421.032 330.07ZM400.395 346.054C391.441 350.025 381.767 352.022 371.338 352.022V358.022C382.556 358.022 393.064 355.869 402.828 351.539L400.395 346.054ZM366.699 246.798C359.942 246.798 354.286 249.071 350.063 253.775C345.932 258.375 343.429 265.014 342.245 273.299L348.185 274.148C349.28 266.483 351.496 261.159 354.527 257.784C357.465 254.512 361.412 252.798 366.699 252.798V246.798ZM345.215 276.724H386.719V270.724H345.215V276.724ZM389.719 273.724V270.55H383.719V273.724H389.719ZM389.718 270.624C389.894 263.49 388.087 257.521 383.859 253.194L379.568 257.388C382.339 260.223 383.869 264.426 383.72 270.476L389.718 270.624ZM383.883 253.218C379.667 248.807 373.783 246.798 366.699 246.798V252.798C372.637 252.798 376.762 254.451 379.545 257.364L383.883 253.218ZM523.56 257.732L523.344 260.725L526.498 260.952L526.559 257.79L523.56 257.732ZM510.01 256.756L510.225 253.764L510.118 253.756H510.01V256.756ZM485.107 268.963L482.372 267.732L482.107 268.319V268.963H485.107ZM485.107 352.581V355.581H488.107V352.581H485.107ZM443.97 352.581H440.97V355.581H443.97V352.581ZM443.97 220.501V217.501H440.97V220.501H443.97ZM482.544 220.501L485.535 220.264L485.316 217.501H482.544V220.501ZM483.887 237.469L480.896 237.705L481.704 247.915L486.532 238.883L483.887 237.469ZM524.292 219.524L527.291 219.582L527.335 217.305L525.154 216.651L524.292 219.524ZM523.775 254.74L510.225 253.764L509.794 259.748L523.344 260.725L523.775 254.74ZM510.01 253.756C496.503 253.756 486.728 258.052 482.372 267.732L487.843 270.194C490.811 263.598 497.638 259.756 510.01 259.756V253.756ZM482.107 268.963V352.581H488.107V268.963H482.107ZM485.107 349.581H443.97V355.581H485.107V349.581ZM446.97 352.581V220.501H440.97V352.581H446.97ZM443.97 223.501H482.544V217.501H443.97V223.501ZM479.553 220.738L480.896 237.705L486.877 237.232L485.535 220.264L479.553 220.738ZM486.532 238.883C493.045 226.701 501.782 221.06 512.817 221.06V215.06C499.113 215.06 488.563 222.357 481.241 236.054L486.532 238.883ZM512.817 221.06C517.001 221.06 520.522 221.526 523.43 222.398L525.154 216.651C521.551 215.57 517.423 215.06 512.817 215.06V221.06ZM521.293 219.467L520.56 257.675L526.559 257.79L527.291 219.582L521.293 219.467ZM591.431 303.387L594.019 301.871L592.056 298.518L589.309 301.265L591.431 303.387ZM579.834 314.983L577.713 312.862L576.834 313.741V314.983H579.834ZM579.834 352.581V355.581H582.834V352.581H579.834ZM538.696 352.581H535.696V355.581H538.696V352.581ZM538.696 164.959V161.959H535.696V164.959H538.696ZM579.834 164.959H582.834V161.959H579.834V164.959ZM579.834 264.568H576.834V273.515L582.228 266.377L579.834 264.568ZM583.984 259.075L581.646 257.196L581.618 257.231L581.591 257.267L583.984 259.075ZM614.99 220.501V217.501H613.553L612.652 218.621L614.99 220.501ZM664.307 220.501L666.591 222.446L670.802 217.501H664.307V220.501ZM618.042 274.822L615.758 272.877L614.324 274.561L615.509 276.429L618.042 274.822ZM667.358 352.581V355.581H672.814L669.892 350.974L667.358 352.581ZM620.239 352.581L617.65 354.097L618.52 355.581H620.239V352.581ZM589.309 301.265L577.713 312.862L581.955 317.105L593.552 305.508L589.309 301.265ZM576.834 314.983V352.581H582.834V314.983H576.834ZM579.834 349.581H538.696V355.581H579.834V349.581ZM541.696 352.581V164.959H535.696V352.581H541.696ZM538.696 167.959H579.834V161.959H538.696V167.959ZM576.834 164.959V264.568H582.834V164.959H576.834ZM582.228 266.377L586.378 260.884L581.591 257.267L577.44 262.76L582.228 266.377ZM586.323 260.955L617.329 222.38L612.652 218.621L581.646 257.196L586.323 260.955ZM614.99 223.501H664.307V217.501H614.99V223.501ZM662.023 218.556L615.758 272.877L620.326 276.767L666.591 222.446L662.023 218.556ZM615.509 276.429L664.825 354.188L669.892 350.974L620.575 273.216L615.509 276.429ZM667.358 349.581H620.239V355.581H667.358V349.581ZM622.828 351.065L594.019 301.871L588.842 304.903L617.65 354.097L622.828 351.065ZM749.512 352.581L746.878 354.018L747.731 355.581H749.512V352.581ZM745.605 340.74L748.536 340.099L747.187 333.93L743.257 338.874L745.605 340.74ZM682.129 343.792L680.161 346.056L680.167 346.062L680.173 346.067L682.129 343.792ZM684.937 282.879L683.229 280.412L684.937 282.879ZM743.774 271.893V274.893H746.774V271.893H743.774ZM713.379 261.15V264.15H716.379V261.15H713.379ZM672.241 261.15H669.241V264.15H672.241V261.15ZM688.477 230.022L686.706 227.601L686.697 227.607L688.477 230.022ZM770.02 230.389L771.951 228.093L770.02 230.389ZM785.034 264.202H788.034V264.177L788.034 264.151L785.034 264.202ZM785.034 322.674H782.034V322.694L782.034 322.714L785.034 322.674ZM790.649 350.506H793.649V349.727L793.27 349.046L790.649 350.506ZM790.649 352.581V355.581H793.649V352.581H790.649ZM736.45 322.43L734.828 319.906L734.814 319.915L734.8 319.924L736.45 322.43ZM743.774 314.983L746.426 316.387L746.774 315.729V314.983H743.774ZM743.774 293.865H746.774V290.865H743.774V293.865ZM714.111 322.308L712.062 324.498L712.081 324.516L712.1 324.534L714.111 322.308ZM752.145 351.144C750.882 348.827 749.653 345.203 748.536 340.099L742.675 341.381C743.837 346.694 745.212 350.964 746.878 354.018L752.145 351.144ZM743.257 338.874C736.33 347.589 726.665 352.022 713.867 352.022V358.022C728.25 358.022 739.745 352.935 747.954 342.607L743.257 338.874ZM713.867 352.022C702.069 352.022 692.201 348.495 684.085 341.517L680.173 346.067C689.472 354.062 700.764 358.022 713.867 358.022V352.022ZM684.097 341.528C676.035 334.521 672.067 325.862 672.067 315.35H666.067C666.067 327.624 670.807 337.926 680.161 346.056L684.097 341.528ZM672.067 315.35C672.067 301.881 676.975 292.039 686.644 285.345L683.229 280.412C671.739 288.367 666.067 300.172 666.067 315.35H672.067ZM686.644 285.345C696.51 278.515 711.186 274.893 731.079 274.893V268.893C710.608 268.893 694.521 272.594 683.229 280.412L686.644 285.345ZM731.079 274.893H743.774V268.893H731.079V274.893ZM746.774 271.893V264.935H740.774V271.893H746.774ZM746.774 264.935C746.774 258.507 745.392 253.126 742.106 249.33C738.747 245.451 733.861 243.746 728.027 243.746V249.746C732.692 249.746 735.679 251.073 737.57 253.257C739.532 255.523 740.774 259.237 740.774 264.935H746.774ZM728.027 243.746C722.695 243.746 718.142 245.057 714.938 248.208C711.724 251.368 710.379 255.874 710.379 261.15H716.379C716.379 256.824 717.475 254.128 719.144 252.486C720.823 250.835 723.594 249.746 728.027 249.746V243.746ZM713.379 258.15H672.241V264.15H713.379V258.15ZM675.241 261.15C675.241 249.384 680.153 239.882 690.256 232.438L686.697 227.607C675.153 236.113 669.241 247.364 669.241 261.15H675.241ZM690.248 232.444C700.523 224.929 713.734 221.06 730.103 221.06V215.06C712.779 215.06 698.24 219.166 686.706 227.601L690.248 232.444ZM730.103 221.06C746.47 221.06 759.015 225.048 768.088 232.684L771.951 228.093C761.493 219.291 747.427 215.06 730.103 215.06V221.06ZM768.088 232.684C777.104 240.273 781.803 250.679 782.035 264.253L788.034 264.151C787.777 249.079 782.466 236.943 771.951 228.093L768.088 232.684ZM782.034 264.202V322.674H788.034V264.202H782.034ZM782.034 322.714C782.2 335.051 784.097 344.907 788.029 351.966L793.27 349.046C790.04 343.247 788.194 334.547 788.034 322.634L782.034 322.714ZM787.649 350.506V352.581H793.649V350.506H787.649ZM790.649 349.581H749.512V355.581H790.649V349.581ZM723.755 328.726C729.304 328.726 734.152 327.535 738.1 324.935L734.8 319.924C732.075 321.719 728.46 322.726 723.755 322.726V328.726ZM738.072 324.953C741.798 322.558 744.658 319.726 746.426 316.387L741.123 313.58C739.961 315.775 737.938 317.907 734.828 319.906L738.072 324.953ZM746.774 314.983V293.865H740.774V314.983H746.774ZM743.774 290.865H731.812V296.865H743.774V290.865ZM731.812 290.865C724.263 290.865 718.041 292.552 713.694 296.455C709.286 300.412 707.327 306.172 707.327 313.152H713.327C713.327 307.274 714.949 303.391 717.702 300.919C720.517 298.393 725.037 296.865 731.812 296.865V290.865ZM707.327 313.152C707.327 317.649 708.878 321.52 712.062 324.498L716.161 320.117C714.299 318.375 713.327 316.143 713.327 313.152H707.327ZM712.1 324.534C715.257 327.385 719.224 328.726 723.755 328.726V322.726C720.473 322.726 718.012 321.788 716.122 320.081L712.1 324.534ZM825.317 291.546L823.85 294.162L823.862 294.169L823.874 294.176L825.317 291.546ZM819.824 229.9L821.67 232.265L821.676 232.261L821.682 232.256L819.824 229.9ZM901.123 229.9L899.329 232.305L901.123 229.9ZM916.992 261.028V264.028H919.992V261.028H916.992ZM875.732 261.028H872.732V264.028H875.732V261.028ZM848.145 248.821L850.027 251.158L850.046 251.142L850.065 251.126L848.145 248.821ZM866.211 272.259L865.658 275.207L865.664 275.208L866.211 272.259ZM886.963 277.508L887.939 274.671L887.935 274.67L886.963 277.508ZM900.635 343.67L898.907 341.217L898.898 341.224L900.635 343.67ZM800.659 310.223V307.223H797.659V310.223H800.659ZM839.111 310.223L842.11 310.143L842.032 307.223H839.111V310.223ZM845.215 323.65L843.447 326.074L843.464 326.087L843.481 326.098L845.215 323.65ZM872.803 324.383L870.929 322.04L870.912 322.053L870.896 322.067L872.803 324.383ZM880.075 315.472C880.075 310.661 877.445 306.971 873.083 304.451L870.081 309.646C873.044 311.358 874.075 313.283 874.075 315.472H880.075ZM873.083 304.451C868.976 302.078 861.598 299.804 851.359 297.528L850.057 303.386C860.326 305.667 866.864 307.788 870.081 309.646L873.083 304.451ZM851.359 297.528C841.285 295.29 833.111 292.401 826.761 288.916L823.874 294.176C830.87 298.015 839.623 301.067 850.057 303.386L851.359 297.528ZM826.785 288.929C820.443 285.372 815.748 281.158 812.561 276.341L807.557 279.651C811.368 285.413 816.845 290.233 823.85 294.162L826.785 288.929ZM812.561 276.341C809.412 271.581 807.81 266.103 807.81 259.808H801.81C801.81 267.184 803.707 273.832 807.557 279.651L812.561 276.341ZM807.81 259.808C807.81 248.655 812.349 239.54 821.67 232.265L817.978 227.535C807.28 235.885 801.81 246.708 801.81 259.808H807.81ZM821.682 232.256C831.033 224.881 843.425 221.06 859.131 221.06V215.06C842.447 215.06 828.635 219.132 817.967 227.545L821.682 232.256ZM859.131 221.06C876.105 221.06 889.411 224.905 899.329 232.305L902.917 227.496C891.676 219.108 876.987 215.06 859.131 215.06V221.06ZM899.329 232.305C909.173 239.65 913.992 249.146 913.992 261.028H919.992C919.992 247.194 914.232 235.938 902.917 227.496L899.329 232.305ZM916.992 258.028H875.732V264.028H916.992V258.028ZM878.732 261.028C878.732 255.235 877.198 250.349 873.617 246.95C870.064 243.579 865.008 242.159 859.009 242.159V248.159C864.159 248.159 867.464 249.384 869.487 251.303C871.479 253.194 872.732 256.242 872.732 261.028H878.732ZM859.009 242.159C854.091 242.159 849.763 243.567 846.224 246.517L850.065 251.126C852.385 249.193 855.3 248.159 859.009 248.159V242.159ZM846.263 246.485C842.667 249.381 840.75 253.192 840.75 257.732H846.75C846.75 255.111 847.762 252.981 850.027 251.158L846.263 246.485ZM840.75 257.732C840.75 262.598 843.226 266.448 847.51 269.175L850.732 264.113C847.855 262.282 846.75 260.191 846.75 257.732H840.75ZM847.51 269.175C851.585 271.767 857.74 273.723 865.658 275.207L866.764 269.31C859.057 267.865 853.819 266.077 850.732 264.113L847.51 269.175ZM865.664 275.208C873.451 276.654 880.221 278.37 885.991 280.346L887.935 274.67C881.824 272.577 874.759 270.794 866.758 269.309L865.664 275.208ZM885.986 280.344C895.555 283.639 902.46 288.145 906.971 293.71C911.45 299.235 913.748 306.022 913.748 314.251H919.748C919.748 304.821 917.082 296.654 911.632 289.931C906.215 283.249 898.227 278.213 887.939 274.671L885.986 280.344ZM913.748 314.251C913.748 325.22 908.936 334.151 898.907 341.217L902.363 346.122C913.817 338.052 919.748 327.37 919.748 314.251H913.748ZM898.898 341.224C888.878 348.337 875.703 352.022 859.131 352.022V358.022C876.575 358.022 891.07 354.139 902.371 346.116L898.898 341.224ZM859.131 352.022C848.182 352.022 838.529 350.055 830.108 346.192L827.607 351.646C836.927 355.921 847.456 358.022 859.131 358.022V352.022ZM830.108 346.192C821.65 342.312 815.172 337.094 810.552 330.582L805.659 334.053C810.967 341.538 818.324 347.388 827.607 351.646L830.108 346.192ZM810.552 330.582C805.907 324.032 803.659 317.264 803.659 310.223H797.659C797.659 318.643 800.376 326.605 805.659 334.053L810.552 330.582ZM800.659 313.223H839.111V307.223H800.659V313.223ZM836.112 310.303C836.293 317.067 838.596 322.537 843.447 326.074L846.982 321.226C844.021 319.067 842.255 315.585 842.11 310.143L836.112 310.303ZM843.481 326.098C848.018 329.312 853.676 330.801 860.229 330.801V324.801C854.576 324.801 850.224 323.523 846.949 321.202L843.481 326.098ZM860.229 330.801C866.168 330.801 871.175 329.609 874.71 326.699L870.896 322.067C868.896 323.714 865.521 324.801 860.229 324.801V330.801ZM874.677 326.725C878.24 323.875 880.075 320.041 880.075 315.472H874.075C874.075 318.227 873.062 320.334 870.929 322.04L874.677 326.725ZM953.491 291.546L952.023 294.162L952.036 294.169L952.048 294.176L953.491 291.546ZM947.998 229.9L949.844 232.265L949.85 232.261L949.856 232.256L947.998 229.9ZM1029.3 229.9L1027.5 232.305L1029.3 229.9ZM1045.17 261.028V264.028H1048.17V261.028H1045.17ZM1003.91 261.028H1000.91V264.028H1003.91V261.028ZM976.318 248.821L978.2 251.158L978.22 251.142L978.239 251.126L976.318 248.821ZM994.385 272.259L993.832 275.207L993.837 275.208L994.385 272.259ZM1015.14 277.508L1016.11 274.671L1016.11 274.67L1015.14 277.508ZM1028.81 343.67L1027.08 341.217L1027.07 341.224L1028.81 343.67ZM928.833 310.223V307.223H925.833V310.223H928.833ZM967.285 310.223L970.284 310.143L970.206 307.223H967.285V310.223ZM973.389 323.65L971.621 326.074L971.638 326.087L971.655 326.098L973.389 323.65ZM1000.98 324.383L999.102 322.04L999.086 322.053L999.069 322.067L1000.98 324.383ZM1008.25 315.472C1008.25 310.661 1005.62 306.971 1001.26 304.451L998.255 309.646C1001.22 311.358 1002.25 313.283 1002.25 315.472H1008.25ZM1001.26 304.451C997.149 302.078 989.772 299.804 979.533 297.528L978.231 303.386C988.5 305.667 995.038 307.788 998.255 309.646L1001.26 304.451ZM979.533 297.528C969.459 295.29 961.285 292.401 954.935 288.916L952.048 294.176C959.044 298.015 967.797 301.067 978.231 303.386L979.533 297.528ZM954.959 288.929C948.617 285.372 943.921 281.158 940.734 276.341L935.73 279.651C939.542 285.413 945.019 290.233 952.023 294.162L954.959 288.929ZM940.734 276.341C937.585 271.581 935.983 266.103 935.983 259.808H929.983C929.983 267.184 931.881 273.832 935.73 279.651L940.734 276.341ZM935.983 259.808C935.983 248.655 940.523 239.54 949.844 232.265L946.152 227.535C935.454 235.885 929.983 246.708 929.983 259.808H935.983ZM949.856 232.256C959.207 224.881 971.599 221.06 987.305 221.06V215.06C970.621 215.06 956.808 219.132 946.14 227.545L949.856 232.256ZM987.305 221.06C1004.28 221.06 1017.59 224.905 1027.5 232.305L1031.09 227.496C1019.85 219.108 1005.16 215.06 987.305 215.06V221.06ZM1027.5 232.305C1037.35 239.65 1042.17 249.146 1042.17 261.028H1048.17C1048.17 247.194 1042.41 235.938 1031.09 227.496L1027.5 232.305ZM1045.17 258.028H1003.91V264.028H1045.17V258.028ZM1006.91 261.028C1006.91 255.235 1005.37 250.349 1001.79 246.95C998.238 243.579 993.181 242.159 987.183 242.159V248.159C992.333 248.159 995.638 249.384 997.66 251.303C999.653 253.194 1000.91 256.242 1000.91 261.028H1006.91ZM987.183 242.159C982.265 242.159 977.937 243.567 974.398 246.517L978.239 251.126C980.559 249.193 983.474 248.159 987.183 248.159V242.159ZM974.436 246.485C970.841 249.381 968.924 253.192 968.924 257.732H974.924C974.924 255.111 975.936 252.981 978.2 251.158L974.436 246.485ZM968.924 257.732C968.924 262.598 971.399 266.448 975.684 269.175L978.906 264.113C976.029 262.282 974.924 260.191 974.924 257.732H968.924ZM975.684 269.175C979.758 271.767 985.913 273.723 993.832 275.207L994.938 269.31C987.231 267.865 981.993 266.077 978.906 264.113L975.684 269.175ZM993.837 275.208C1001.62 276.654 1008.39 278.37 1014.16 280.346L1016.11 274.67C1010 272.577 1002.93 270.794 994.932 269.309L993.837 275.208ZM1014.16 280.344C1023.73 283.639 1030.63 288.145 1035.15 293.71C1039.62 299.235 1041.92 306.022 1041.92 314.251H1047.92C1047.92 304.821 1045.26 296.654 1039.81 289.931C1034.39 283.249 1026.4 278.213 1016.11 274.671L1014.16 280.344ZM1041.92 314.251C1041.92 325.22 1037.11 334.151 1027.08 341.217L1030.54 346.122C1041.99 338.052 1047.92 327.37 1047.92 314.251H1041.92ZM1027.07 341.224C1017.05 348.337 1003.88 352.022 987.305 352.022V358.022C1004.75 358.022 1019.24 354.139 1030.55 346.116L1027.07 341.224ZM987.305 352.022C976.356 352.022 966.702 350.055 958.282 346.192L955.78 351.646C965.101 355.921 975.629 358.022 987.305 358.022V352.022ZM958.282 346.192C949.824 342.312 943.346 337.094 938.726 330.582L933.832 334.053C939.141 341.538 946.498 347.388 955.78 351.646L958.282 346.192ZM938.726 330.582C934.081 324.032 931.833 317.264 931.833 310.223H925.833C925.833 318.643 928.55 326.605 933.832 334.053L938.726 330.582ZM928.833 313.223H967.285V307.223H928.833V313.223ZM964.286 310.303C964.467 317.067 966.77 322.537 971.621 326.074L975.156 321.226C972.195 319.067 970.429 315.585 970.284 310.143L964.286 310.303ZM971.655 326.098C976.192 329.312 981.85 330.801 988.403 330.801V324.801C982.75 324.801 978.398 323.523 975.123 321.202L971.655 326.098ZM988.403 330.801C994.342 330.801 999.349 329.609 1002.88 326.699L999.069 322.067C997.07 323.714 993.695 324.801 988.403 324.801V330.801ZM1002.85 326.725C1006.41 323.875 1008.25 320.041 1008.25 315.472H1002.25C1002.25 318.227 1001.24 320.334 999.102 322.04L1002.85 326.725ZM1138.67 352.581L1136.04 354.018L1136.89 355.581H1138.67V352.581ZM1134.77 340.74L1137.7 340.099L1136.35 333.93L1132.42 338.874L1134.77 340.74ZM1071.29 343.792L1069.32 346.056L1069.33 346.062L1069.33 346.067L1071.29 343.792ZM1074.1 282.879L1072.39 280.412L1074.1 282.879ZM1132.93 271.893V274.893H1135.93V271.893H1132.93ZM1102.54 261.15V264.15H1105.54V261.15H1102.54ZM1061.4 261.15H1058.4V264.15H1061.4V261.15ZM1077.64 230.022L1075.87 227.601L1075.86 227.607L1077.64 230.022ZM1159.18 230.389L1161.11 228.093L1159.18 230.389ZM1174.19 264.202H1177.19V264.177L1177.19 264.151L1174.19 264.202ZM1174.19 322.674H1171.19V322.694L1171.19 322.714L1174.19 322.674ZM1179.81 350.506H1182.81V349.727L1182.43 349.046L1179.81 350.506ZM1179.81 352.581V355.581H1182.81V352.581H1179.81ZM1125.61 322.43L1123.99 319.906L1123.97 319.915L1123.96 319.924L1125.61 322.43ZM1132.93 314.983L1135.59 316.387L1135.93 315.729V314.983H1132.93ZM1132.93 293.865H1135.93V290.865H1132.93V293.865ZM1103.27 322.308L1101.22 324.498L1101.24 324.516L1101.26 324.534L1103.27 322.308ZM1141.31 351.144C1140.04 348.827 1138.81 345.203 1137.7 340.099L1131.83 341.381C1133 346.694 1134.37 350.964 1136.04 354.018L1141.31 351.144ZM1132.42 338.874C1125.49 347.589 1115.83 352.022 1103.03 352.022V358.022C1117.41 358.022 1128.9 352.935 1137.11 342.607L1132.42 338.874ZM1103.03 352.022C1091.23 352.022 1081.36 348.495 1073.24 341.517L1069.33 346.067C1078.63 354.062 1089.92 358.022 1103.03 358.022V352.022ZM1073.26 341.528C1065.2 334.521 1061.23 325.862 1061.23 315.35H1055.23C1055.23 327.624 1059.97 337.926 1069.32 346.056L1073.26 341.528ZM1061.23 315.35C1061.23 301.881 1066.14 292.039 1075.8 285.345L1072.39 280.412C1060.9 288.367 1055.23 300.172 1055.23 315.35H1061.23ZM1075.8 285.345C1085.67 278.515 1100.35 274.893 1120.24 274.893V268.893C1099.77 268.893 1083.68 272.594 1072.39 280.412L1075.8 285.345ZM1120.24 274.893H1132.93V268.893H1120.24V274.893ZM1135.93 271.893V264.935H1129.93V271.893H1135.93ZM1135.93 264.935C1135.93 258.507 1134.55 253.126 1131.27 249.33C1127.91 245.451 1123.02 243.746 1117.19 243.746V249.746C1121.85 249.746 1124.84 251.073 1126.73 253.257C1128.69 255.523 1129.93 259.237 1129.93 264.935H1135.93ZM1117.19 243.746C1111.85 243.746 1107.3 245.057 1104.1 248.208C1100.88 251.368 1099.54 255.874 1099.54 261.15H1105.54C1105.54 256.824 1106.64 254.128 1108.3 252.486C1109.98 250.835 1112.75 249.746 1117.19 249.746V243.746ZM1102.54 258.15H1061.4V264.15H1102.54V258.15ZM1064.4 261.15C1064.4 249.384 1069.31 239.882 1079.42 232.438L1075.86 227.607C1064.31 236.113 1058.4 247.364 1058.4 261.15H1064.4ZM1079.41 232.444C1089.68 224.929 1102.89 221.06 1119.26 221.06V215.06C1101.94 215.06 1087.4 219.166 1075.87 227.601L1079.41 232.444ZM1119.26 221.06C1135.63 221.06 1148.18 225.048 1157.25 232.684L1161.11 228.093C1150.65 219.291 1136.59 215.06 1119.26 215.06V221.06ZM1157.25 232.684C1166.26 240.273 1170.96 250.679 1171.19 264.253L1177.19 264.151C1176.94 249.079 1171.63 236.943 1161.11 228.093L1157.25 232.684ZM1171.19 264.202V322.674H1177.19V264.202H1171.19ZM1171.19 322.714C1171.36 335.051 1173.26 344.907 1177.19 351.966L1182.43 349.046C1179.2 343.247 1177.35 334.547 1177.19 322.634L1171.19 322.714ZM1176.81 350.506V352.581H1182.81V350.506H1176.81ZM1179.81 349.581H1138.67V355.581H1179.81V349.581ZM1112.92 328.726C1118.46 328.726 1123.31 327.535 1127.26 324.935L1123.96 319.924C1121.24 321.719 1117.62 322.726 1112.92 322.726V328.726ZM1127.23 324.953C1130.96 322.558 1133.82 319.726 1135.59 316.387L1130.28 313.58C1129.12 315.775 1127.1 317.907 1123.99 319.906L1127.23 324.953ZM1135.93 314.983V293.865H1129.93V314.983H1135.93ZM1132.93 290.865H1120.97V296.865H1132.93V290.865ZM1120.97 290.865C1113.42 290.865 1107.2 292.552 1102.85 296.455C1098.45 300.412 1096.49 306.172 1096.49 313.152H1102.49C1102.49 307.274 1104.11 303.391 1106.86 300.919C1109.68 298.393 1114.2 296.865 1120.97 296.865V290.865ZM1096.49 313.152C1096.49 317.649 1098.04 321.52 1101.22 324.498L1105.32 320.117C1103.46 318.375 1102.49 316.143 1102.49 313.152H1096.49ZM1101.26 324.534C1104.42 327.385 1108.38 328.726 1112.92 328.726V322.726C1109.63 322.726 1107.17 321.788 1105.28 320.081L1101.26 324.534Z" fill="#24D05E"/>
</svg>
